{"title":"WWE.WrestleMania.XXVIII.2012.04.01.HDTV.XviD-FICEK9","uid":7230291,"size":3130802044,"categoryP":"video","categoryS":"tv_shows","magnet":"?xt=urn:btih:a3076bf527bc46f357d24c73ddcf7252477a0f49&amp;dn=WWE.WrestleMania.XXVIII.2012.04.01.HDTV.XviD-FICEK9&amp;tr=udp%3A%2F%2Ftracker.openbittorrent.com%3A80&amp;tr=udp%3A%2F%2Fopen.demonii.com%3A1337&amp;tr=udp%3A%2F%2Ftracker.coppersurfer.tk%3A6969&amp;tr=udp%3A%2F%2Fexodus.desync.com%3A6969","seeders":0,"leechers":1,"uploader":"FICEK9","files":2,"time":1335813097,"description":"      Complete name : WWE.WrestleMania.XXVIII.2012.04.01.HDTV.XviD-FICEK9.avi\n      Format : AVI\n      Format/Info : Audio Video Interleave\n      Format profile : OpenDML\n      File size : 2.92 GiB\n      Duration : 3h 57mn\n      Overall bit rate mode : Variable\n      Overall bit rate : 1 757 Kbps\n      Writing application : MEncoder SVN-r30881(20100311-gcc4.3.3)\n      Writing library : MPlayer\n   Video #0\n      ID : 0\n      Format : MPEG-4 Visual\n      Format profile : Advanced Simple@L5\n      Format settings, BVOP : 2\n      Format settings, QPel : No\n      Format settings, GMC : No warppoints\n      Format settings, Matrix : Default (H.263)\n      Codec ID : XVID\n      Codec ID/Hint : XviD\n      Duration : 3h 57mn\n      Bit rate : 1 621 Kbps\n      Width : 720 pixels\n      Height : 406 pixels\n      Display aspect ratio : 16:9\n      Frame rate : 29.970 fps\n      Color space : YUV\n      Chroma subsampling : 4:2:0\n      Bit depth : 8 bits\n      Scan type : Progressive\n      Compression mode : Lossy\n      Bits/(Pixel*Frame) : 0.185\n      Stream size : 2.69 GiB (92%)\n      Writing library : XviD 1.2.1 (UTC 2008-12-04)\n   Audio #1\n      ID : 1\n      Format : MPEG Audio\n      Format version : Version 1\n      Format profile : Layer 3\n      Mode : Joint stereo\n      Mode extension : MS Stereo\n      Codec ID : 55\n      Codec ID/Hint : MP3\n      Duration : 3h 57mn\n      Bit rate mode : Variable\n      Bit rate : 123 Kbps\n      Channel(s) : 2 channels\n      Sampling rate : 48.0 KHz\n      Compression mode : Lossy\n      Stream size : 210 MiB (7%)\n      Alignment : Aligned on interleaves\n      Interleave, duration : 24 ms (0.72 video frame)\n      Interleave, preload duration : 485 ms","torrent":{"xt":"urn:btih:a3076bf527bc46f357d24c73ddcf7252477a0f49","amp;dn":"WWE.WrestleMania.XXVIII.2012.04.01.HDTV.XviD-FICEK9","amp;tr":["udp%3A%2F%2Ftracker.openbittorrent.com%3A80","udp%3A%2F%2Fopen.demonii.com%3A1337","udp%3A%2F%2Ftracker.coppersurfer.tk%3A6969","udp%3A%2F%2Fexodus.desync.com%3A6969"],"infoHash":"a3076bf527bc46f357d24c73ddcf7252477a0f49","infoHashBuffer":{"type":"Buffer","data":[163,7,107,245,39,188,70,243,87,210,76,115,221,207,114,82,71,122,15,73]},"announce":[],"urlList":[]}}